<?xml version="1.0" standalone="no"?>
<!DOCTYPE svg PUBLIC "-//W3C//DTD SVG 20010904//EN"
 "http://www.w3.org/TR/2001/REC-SVG-20010904/DTD/svg10.dtd">
<svg version="1.0" xmlns="http://www.w3.org/2000/svg"
 width="278.000000pt" height="300.000000pt" viewBox="0 0 278.000000 300.000000"
 preserveAspectRatio="xMidYMid meet">

<g transform="translate(0.000000,300.000000) scale(0.100000,-0.100000)"
fill="#000000" stroke="none">
<path d="M1418 2848 c-2 -73 -7 -142 -12 -153 -8 -19 -8 -19 5 -2 12 15 14 -6
11 -154 -2 -141 0 -175 13 -195 13 -20 15 -119 15 -834 0 -802 0 -810 -20
-810 -20 0 -20 8 -22 665 l-3 666 -40 -43 c-22 -23 -29 -33 -15 -22 14 12 31
24 37 28 10 6 12 -129 10 -648 l-2 -656 36 0 c20 0 63 -3 97 -6 47 -5 59 -10
55 -21 -5 -11 -24 -14 -89 -12 -101 4 -114 -14 -17 -21 59 -4 68 -8 70 -25 2
-18 1 -18 -4 -1 -3 12 -7 15 -12 8 -4 -7 -35 -15 -68 -18 -58 -6 -61 -8 -67
-38 -4 -20 -9 -27 -14 -18 -9 14 -62 13 -62 -2 0 -6 -3 -6 -9 0 -5 5 -11 44
-13 87 l-3 77 45 2 c29 0 35 2 18 5 l-28 4 -2 357 c-3 306 -5 354 -16 333 -9
-15 -10 -21 -2 -16 8 5 10 -78 8 -334 l-3 -341 -25 0 c-25 0 -25 0 -22 -85 3
-68 1 -85 -11 -85 -12 0 -14 60 -12 397 2 394 2 395 -4 93 -4 -168 -7 -264 -9
-213 l-2 92 -67 4 -68 3 68 2 c60 2 67 4 67 22 0 18 -7 20 -72 22 -70 2 -71 2
-15 5 l57 4 -2 47 -1 47 -4 -42 c-8 -84 -23 -42 -23 64 0 87 -3 110 -17 126
-18 20 -18 20 10 2 15 -9 30 -29 33 -44 10 -44 12 -47 13 -16 1 25 -11 43 -64
95 l-64 64 -4 115 c-1 64 -4 4 -5 -134 -3 -382 -12 -565 -28 -565 -11 0 -14
60 -17 307 l-2 308 -3 -312 -2 -313 35 0 35 0 0 -90 0 -90 -40 0 c-34 0 -40 3
-40 21 0 15 -5 20 -22 17 -17 -2 -22 -9 -20 -25 3 -19 -2 -23 -21 -23 -20 0
-24 4 -20 19 5 21 -25 37 -41 21 -7 -7 -7 -16 1 -29 11 -18 7 -20 -50 -30 -34
-7 -101 -15 -149 -18 l-88 -6 0 36 c0 60 -43 60 -46 -1 -1 -40 -28 -34 -34 8
-6 44 -33 47 -40 6 -8 -44 -30 -45 -30 -2 l0 36 -80 0 c-75 0 -80 -1 -80 -21
0 -15 -4 -19 -16 -15 -9 3 -18 6 -20 6 -2 0 -4 11 -4 25 0 24 2 25 74 25 93 0
197 11 191 20 -2 4 -63 5 -135 2 l-130 -5 0 37 c0 25 -4 35 -11 30 -8 -5 -9
58 -4 230 7 214 6 236 -9 230 -14 -5 -16 -38 -18 -259 l-3 -254 -32 92 c-26
75 -28 88 -13 68 11 -13 20 -18 20 -11 0 21 -33 68 -54 79 -16 7 -17 10 -5 10
9 1 28 -8 43 -20 14 -11 26 -16 26 -11 0 11 -40 48 -60 55 -10 3 -4 10 20 20
l35 16 -32 1 c-17 0 -35 -4 -38 -10 -12 -20 -25 -9 -25 20 0 17 -4 30 -10 30
-5 0 -10 -18 -10 -40 0 -37 -2 -40 -19 -30 -30 16 -36 12 -16 -10 13 -14 15
-23 7 -33 -6 -7 -16 -26 -22 -42 l-11 -30 26 30 c19 21 25 24 20 10 -14 -39
-18 -112 -6 -119 7 -4 11 0 11 12 0 10 8 40 17 67 l16 49 19 -43 c21 -50 58
-190 58 -220 0 -17 -6 -21 -31 -21 -57 0 -25 -25 42 -33 35 -4 125 -17 200
-28 114 -18 163 -21 295 -16 96 4 187 13 229 23 102 25 322 24 440 -2 128 -27
423 -27 545 0 119 27 305 26 470 -2 151 -27 260 -29 260 -7 0 9 -9 15 -25 15
-28 0 -31 15 -15 90 14 64 61 190 70 190 4 0 11 -15 14 -32 16 -79 19 -88 28
-88 11 0 6 79 -7 115 -5 15 0 12 20 -10 27 -28 27 -28 20 -5 -4 14 -14 32 -21
41 -19 21 -18 27 9 51 22 20 17 20 -28 2 -12 -5 -15 2 -15 30 0 20 -4 36 -10
36 -5 0 -10 -14 -10 -30 0 -30 0 -30 -25 -14 -14 9 -34 14 -45 11 -19 -5 -20
0 -20 114 l0 119 -39 20 c-22 11 -43 25 -47 31 -4 8 -3 9 4 5 8 -5 12 3 12 24
0 35 -16 45 -51 30 l-24 -10 26 5 c33 6 41 -2 26 -25 -8 -14 -19 -17 -41 -14
-28 4 -24 0 14 -12 10 -4 6 -11 -15 -24 -17 -11 -34 -20 -38 -20 -4 0 -7 26
-5 58 3 54 4 57 28 55 l25 -3 -3 188 c-2 103 -7 178 -11 167 -4 -11 -6 -33 -4
-49 2 -17 -3 -33 -9 -38 -10 -6 -10 -8 0 -8 6 0 12 -5 12 -11 0 -7 -9 -9 -22
-6 -23 6 -23 6 -3 -9 17 -13 18 -16 5 -24 -10 -7 -11 -10 -2 -10 6 0 12 -4 12
-10 0 -5 -7 -10 -15 -10 -9 0 -12 -6 -9 -15 5 -11 1 -14 -12 -9 -18 5 -18 5
-1 -6 12 -8 16 -18 11 -32 -3 -11 -7 -26 -9 -32 -1 -6 -7 -22 -13 -36 -8 -19
-11 27 -11 193 -1 233 -2 228 47 184 12 -11 22 -16 22 -11 0 5 -18 22 -40 37
l-40 28 0 -235 c0 -229 -1 -236 -20 -236 -15 0 -20 -7 -20 -29 0 -16 -6 -32
-12 -34 -10 -4 -10 -6 0 -6 7 -1 12 -15 12 -35 0 -19 -6 -37 -12 -39 -10 -4
-10 -6 0 -6 6 -1 12 -8 12 -16 0 -8 -6 -15 -12 -15 -10 0 -10 -2 -1 -8 6 -4
11 -23 10 -42 -2 -34 -3 -35 -49 -38 l-47 -3 -4 -122 -3 -122 -2 148 c-1 112
1 147 11 147 7 0 6 4 -4 10 -12 7 -16 31 -18 119 -2 98 0 110 16 114 14 4 15
5 2 6 -30 2 -37 123 -17 282 l12 96 54 18 c29 9 52 19 49 21 -2 2 -23 -3 -47
-11 -23 -8 -44 -15 -45 -15 -2 0 -1 101 1 225 2 144 0 225 -6 225 -6 0 -10
-13 -10 -30 0 -33 -3 -35 -31 -20 -13 8 -19 21 -19 45 0 19 -4 35 -10 35 -5 0
-10 -14 -10 -31 0 -24 -3 -30 -16 -25 -9 3 -20 6 -25 6 -5 0 -9 21 -10 48 l-1
47 -10 -45 c-14 -62 -47 -84 -49 -32 -1 25 -2 24 -10 -8 -16 -58 -87 -102 -73
-45 4 17 2 25 -7 25 -14 0 -8 -285 12 -542 10 -130 9 -162 -10 -308 -12 -89
-22 -178 -22 -199 -5 -100 -17 106 -18 290 -1 113 -4 247 -8 298 -5 79 -9 93
-27 103 -18 10 -19 9 -9 -4 7 -8 11 -25 8 -37 -2 -13 -7 -231 -11 -485 -5
-386 -9 -463 -21 -476 -13 -13 -14 10 -9 190 12 416 18 830 13 830 -3 0 -17
-4 -31 -10 l-25 -9 -3 131 c-2 94 -7 133 -15 136 -10 3 -13 -29 -13 -137 l0
-140 -40 -12 -40 -12 2 -71 c1 -56 2 -61 5 -23 2 26 8 47 12 47 8 0 7 -55 -3
-191 l-3 -47 31 13 c17 7 43 15 59 19 25 6 27 4 27 -24 0 -16 -3 -29 -7 -28
-17 4 -93 -23 -93 -33 0 -6 7 -6 19 1 11 5 37 13 58 16 48 7 34 -8 -27 -29
-25 -8 -53 -18 -62 -22 -15 -6 -18 3 -21 92 -2 66 -3 51 -3 -47 0 -80 1 -127
3 -104 4 39 6 41 57 57 69 22 76 21 76 -6 0 -19 -10 -27 -50 -41 -63 -23 -61
-30 4 -11 35 11 46 11 44 3 -5 -15 -117 -60 -129 -52 -5 3 -9 -1 -9 -9 0 -13
8 -12 50 4 58 22 90 24 90 7 0 -23 -15 -37 -60 -58 -25 -11 -36 -18 -25 -15
85 26 105 9 23 -19 -29 -9 -58 -20 -65 -22 -6 -3 -13 5 -16 18 -2 13 -5 -37
-6 -109 l-1 -133 -25 0 -25 0 0 293 0 294 -40 36 -40 36 0 404 0 404 -25 23
-25 23 0 299 c0 253 -2 298 -14 298 -12 0 -16 -25 -18 -132z m706 -788 c25
-10 46 -24 46 -30 0 -13 4 -13 -55 9 -27 10 -51 24 -53 30 -5 16 10 14 62 -9z
m-99 -11 c-47 -32 -105 -60 -105 -51 0 10 100 70 120 71 8 0 2 -8 -15 -20z
m55 -34 c7 -8 19 -15 26 -15 8 0 14 -5 14 -11 0 -5 10 -9 22 -7 15 2 24 -3 26
-14 3 -15 -3 -14 -55 6 -32 13 -59 31 -61 40 -4 20 12 21 28 1z m-49 -8 c-20
-25 -111 -77 -111 -64 0 7 24 27 53 44 56 35 76 41 58 20z m59 -48 c34 -19 37
-24 29 -46 -11 -29 -12 -59 -1 -49 7 8 9 13 11 46 0 11 7 20 15 20 11 0 14
-14 11 -62 -1 -35 -6 -70 -10 -79 -3 -9 -5 -32 -4 -50 2 -19 1 -56 0 -84 -3
-46 -4 -48 -12 -20 -6 22 -7 16 -3 -23 3 -30 1 -51 -3 -49 -5 3 -13 -10 -19
-29 -8 -25 -8 -34 0 -34 8 0 10 -15 7 -42 -3 -34 -5 -39 -12 -23 l-8 20 -1
-20 c-1 -11 -1 -45 -1 -75 1 -40 -1 -51 -9 -40 -7 11 -10 0 -10 -42 0 -31 -4
-60 -10 -63 -5 -3 -10 -19 -10 -35 0 -29 -65 -298 -75 -308 -3 -3 -6 3 -6 14
-1 10 -5 -3 -9 -31 -8 -55 -36 -165 -45 -174 -30 -30 -28 152 5 434 38 321
118 865 128 865 2 0 21 -10 42 -21z m-65 -6 c-5 -10 -11 -49 -16 -88 -4 -38
-14 -110 -23 -160 -8 -49 -18 -118 -22 -152 -4 -35 -10 -60 -14 -58 -4 3 -11
71 -14 152 -4 82 -9 173 -12 204 l-5 56 48 31 c55 36 68 39 58 15z m-265 -393
c0 -95 -2 -110 -16 -110 -15 0 -16 9 -10 61 3 34 6 84 6 110 0 27 5 49 10 49
6 0 10 -43 10 -110z m-45 -97 c-12 -68 -25 -30 -25 76 0 79 4 111 13 114 14 4
23 -133 12 -190z m-145 -394 c0 -246 -4 -379 -10 -379 -6 0 -10 135 -10 386 0
254 3 383 10 379 6 -4 10 -143 10 -386z m800 107 c0 -55 -3 -64 -20 -69 -17
-4 -20 -14 -20 -71 0 -37 -4 -66 -10 -66 -6 0 -10 50 -10 129 0 115 2 130 18
134 40 11 42 8 42 -57z m140 -351 c0 -190 -4 -295 -10 -295 -6 0 -11 100 -11
278 -1 152 -4 265 -6 250 -2 -16 -9 -28 -15 -28 -7 0 -7 -4 0 -12 6 -8 11 -91
11 -207 1 -167 -1 -198 -16 -220 -16 -25 -16 -25 1 -12 16 14 17 12 14 -20 -2
-29 -7 -34 -30 -37 l-28 -3 -1 223 c0 123 -4 232 -9 243 -7 17 -9 17 -9 3 -1
-13 -9 -18 -31 -18 l-30 0 0 63 0 63 68 20 c109 33 102 52 102 -291z m-740
260 c0 -21 -7 -27 -45 -37 -25 -7 -45 -16 -45 -20 0 -4 12 -3 26 2 32 13 71
13 59 1 -6 -5 -35 -17 -65 -26 -30 -10 -50 -20 -43 -22 6 -2 32 3 58 11 58 20
55 21 55 -13 0 -25 -5 -30 -47 -42 -26 -7 -42 -14 -36 -16 7 -3 28 0 47 6 59
16 41 -3 -29 -31 l-65 -25 0 101 0 102 43 16 c64 25 87 23 87 -7z m635 -277
c-8 -210 -4 -198 -73 -200 l-57 -2 58 -3 c47 -3 58 -7 55 -20 -4 -20 -44 -32
-120 -38 l-58 -4 0 209 0 210 101 0 100 0 -6 -152z m-1272 85 c-7 -2 -19 -2
-25 0 -7 3 -2 5 12 5 14 0 19 -2 13 -5z m75 0 c-10 -2 -26 -2 -35 0 -10 3 -2
5 17 5 19 0 27 -2 18 -5z m562 -17 c0 -20 -9 -28 -52 -45 -43 -18 -47 -20 -18
-15 19 3 43 8 53 10 9 3 17 1 17 -3 0 -8 -70 -35 -127 -51 -16 -4 -17 36 -3
72 7 18 22 29 57 40 66 20 73 19 73 -8z m-631 -68 c-1 -40 -4 -64 -6 -53 -3
11 -10 26 -15 33 -7 8 -6 12 3 13 12 0 12 1 0 6 -11 5 -11 7 0 14 12 8 11 11
-1 19 -13 9 -13 10 0 10 8 1 2 7 -15 15 l-30 13 33 1 32 1 -1 -72z m81 62 c0
-13 -40 -13 -60 0 -11 7 -5 10 23 10 20 0 37 -4 37 -10z m0 -41 c0 -15 -7 -19
-32 -18 -31 2 -31 2 -5 6 15 2 27 9 27 15 0 6 -13 8 -28 6 -17 -2 -29 1 -29 7
0 6 14 9 34 7 24 -3 33 -9 33 -23z m1388 18 c9 -10 4 -16 -18 -24 -28 -11 -30
-10 -30 13 0 27 30 34 48 11z m-1 -48 c-16 -10 -47 -59 -47 -76 0 -4 10 3 21
17 17 20 20 21 14 5 -4 -11 -14 -39 -22 -62 -8 -24 -17 -43 -20 -43 -3 0 -3
29 -1 64 4 68 25 106 57 106 14 -1 13 -2 -2 -11z m-1387 -9 c0 -5 -13 -10 -30
-10 -16 0 -30 5 -30 10 0 6 14 10 30 10 17 0 30 -4 30 -10z m545 -22 c-1 -17
-12 -27 -43 -38 -51 -19 -66 -33 -21 -20 63 18 64 9 4 -20 -33 -16 -64 -29
-68 -29 -4 -1 -7 20 -5 45 3 45 5 47 48 65 64 25 87 25 85 -3z m-557 -5 c-10
-2 -26 -2 -35 0 -10 3 -2 5 17 5 19 0 27 -2 18 -5z m12 -23 c0 -5 -12 -10 -27
-9 l-28 1 25 8 c14 4 26 8 28 9 1 1 2 -3 2 -9z m-70 -116 c0 -68 -3 -84 -15
-84 -12 0 -15 17 -15 90 0 75 2 88 15 84 12 -5 15 -25 15 -90z m60 1 c0 -69
-3 -85 -15 -85 -8 0 -15 3 -15 8 -1 4 -2 42 -3 85 -2 67 0 77 16 77 15 0 17
-11 17 -85z m548 54 c-2 -6 -28 -19 -58 -29 -64 -22 -70 -23 -70 -11 0 9 63
35 105 44 11 3 22 5 23 6 2 0 2 -4 0 -10z m-1521 -111 c-2 -18 -4 -4 -4 32 0
36 2 50 4 33 2 -18 2 -48 0 -65z m1733 80 c-1 -35 -16 -40 -89 -33 -61 6 -71
10 -71 26 0 17 8 19 80 19 57 0 80 -4 80 -12z m-200 -5 c-1 -21 -19 -35 -39
-28 -19 6 -21 3 -21 -38 0 -44 -1 -45 -35 -49 -20 -2 -38 -2 -40 1 -3 2 -5 23
-5 46 l0 42 53 15 c60 18 87 21 87 11z m-192 -17 c-7 -8 -15 -12 -17 -11 -5 6
10 25 20 25 5 0 4 -6 -3 -14z m367 -36 l60 -7 -85 -1 c-47 0 -110 3 -140 8
-54 7 -54 7 25 8 44 0 107 -4 140 -8z m-375 -10 c0 -5 -5 -10 -11 -10 -5 0 -7
5 -4 10 3 6 8 10 11 10 2 0 4 -4 4 -10z m-51 -32 c-2 -31 -2 -31 -6 -5 -4 23
-9 27 -38 27 -29 0 -34 -4 -38 -27 -4 -26 -4 -26 -6 5 -1 32 0 32 44 32 44 0
45 0 44 -32z m480 6 c8 -7 -163 -2 -219 6 -35 5 -6 6 80 3 74 -3 137 -7 139
-9z m-441 -19 c-3 -3 -9 2 -12 12 -6 14 -5 15 5 6 7 -7 10 -15 7 -18z m26 10
c-4 -8 -8 -15 -10 -15 -2 0 -4 7 -4 15 0 8 4 15 10 15 5 0 7 -7 4 -15z m821
-15 c3 -6 -4 -10 -17 -10 -18 0 -20 2 -8 10 19 12 18 12 25 0z m-595 -21 c-63
-15 -215 -22 -296 -13 l-79 9 110 6 c185 9 305 8 265 -2z m710 -7 c0 -4 -17
-6 -37 -4 -65 6 -70 10 -15 11 28 0 52 -3 52 -7z"/>
<path d="M2071 1904 c0 -11 3 -14 6 -6 3 7 2 16 -1 19 -3 4 -6 -2 -5 -13z"/>
<path d="M2100 1788 c0 -21 2 -38 4 -38 9 0 12 50 5 62 -6 8 -9 -1 -9 -24z"/>
<path d="M2051 1774 c0 -11 3 -14 6 -6 3 7 2 16 -1 19 -3 4 -6 -2 -5 -13z"/>
<path d="M2041 1694 c0 -11 3 -14 6 -6 3 7 2 16 -1 19 -3 4 -6 -2 -5 -13z"/>
<path d="M2083 1665 c0 -22 2 -30 4 -17 2 12 2 30 0 40 -3 9 -5 -1 -4 -23z"/>
<path d="M2066 1568 c-3 -13 -5 -32 -5 -43 1 -11 5 -2 10 19 10 42 6 62 -5 24z"/>
<path d="M2021 1564 c0 -11 3 -14 6 -6 3 7 2 16 -1 19 -3 4 -6 -2 -5 -13z"/>
<path d="M2050 1470 c-1 -8 -1 -23 0 -34 1 -11 -3 -15 -9 -12 -7 5 -8 1 -4
-10 5 -15 7 -15 15 0 5 9 7 29 5 44 -2 15 -5 20 -7 12z"/>
<path d="M1991 1354 c0 -11 3 -14 6 -6 3 7 2 16 -1 19 -3 4 -6 -2 -5 -13z"/>
<path d="M2033 1325 c0 -22 2 -30 4 -17 2 12 2 30 0 40 -3 9 -5 -1 -4 -23z"/>
<path d="M1971 1224 c0 -11 3 -14 6 -6 3 7 2 16 -1 19 -3 4 -6 -2 -5 -13z"/>
<path d="M2012 1210 c0 -19 2 -27 5 -17 2 9 2 25 0 35 -3 9 -5 1 -5 -18z"/>
<path d="M1996 1104 c-4 -20 -5 -38 -3 -40 3 -3 8 11 11 32 4 20 5 38 3 40 -3
3 -8 -11 -11 -32z"/>
<path d="M1952 1100 c0 -14 2 -19 5 -12 2 6 2 18 0 25 -3 6 -5 1 -5 -13z"/>
<path d="M1936 1006 c-4 -21 -5 -40 -2 -43 7 -8 18 42 14 64 -3 11 -7 3 -12
-21z"/>
<path d="M1978 990 c-3 -16 -1 -30 4 -30 4 0 8 14 8 30 0 17 -2 30 -4 30 -2 0
-6 -13 -8 -30z"/>
<path d="M1921 910 c-1 -8 -4 -26 -7 -40 -5 -19 -4 -22 5 -14 7 6 11 24 8 40
-2 16 -5 22 -6 14z"/>
<path d="M1903 765 c0 -22 2 -30 4 -17 2 12 2 30 0 40 -3 9 -5 -1 -4 -23z"/>
<path d="M1982 1790 c0 -19 2 -27 5 -17 2 9 2 25 0 35 -3 9 -5 1 -5 -18z"/>
<path d="M2481 1104 c0 -11 3 -14 6 -6 3 7 2 16 -1 19 -3 4 -6 -2 -5 -13z"/>
<path d="M2450 668 c0 -9 5 -20 10 -23 13 -8 13 5 0 25 -8 13 -10 13 -10 -2z"/>
<path d="M1690 1070 c-11 -8 -7 -9 15 -4 37 8 45 14 19 14 -10 0 -26 -5 -34
-10z"/>
<path d="M1708 973 c-10 -2 -18 -8 -18 -13 0 -5 14 -4 30 1 45 16 36 25 -12
12z"/>
<path d="M2308 913 c18 -2 45 -2 60 0 15 2 0 4 -33 4 -33 0 -45 -2 -27 -4z"/>
<path d="M2240 850 c0 -5 5 -10 10 -10 6 0 10 5 10 10 0 6 -4 10 -10 10 -5 0
-10 -4 -10 -10z"/>
<path d="M2308 853 c18 -2 45 -2 60 0 15 2 0 4 -33 4 -33 0 -45 -2 -27 -4z"/>
<path d="M2240 790 c0 -5 5 -10 10 -10 6 0 10 5 10 10 0 6 -4 10 -10 10 -5 0
-10 -4 -10 -10z"/>
<path d="M2240 730 c0 -5 5 -10 10 -10 6 0 10 5 10 10 0 6 -4 10 -10 10 -5 0
-10 -4 -10 -10z"/>
<path d="M2308 723 c18 -2 45 -2 60 0 15 2 0 4 -33 4 -33 0 -45 -2 -27 -4z"/>
<path d="M2240 664 c0 -8 5 -12 10 -9 6 3 10 10 10 16 0 5 -4 9 -10 9 -5 0
-10 -7 -10 -16z"/>
<path d="M2308 663 c18 -2 45 -2 60 0 15 2 0 4 -33 4 -33 0 -45 -2 -27 -4z"/>
<path d="M2240 600 c0 -5 5 -10 10 -10 6 0 10 5 10 10 0 6 -4 10 -10 10 -5 0
-10 -4 -10 -10z"/>
<path d="M1698 863 c-10 -2 -18 -8 -18 -13 0 -8 57 6 69 16 6 5 -29 3 -51 -3z"/>
<path d="M1690 750 c-18 -12 -2 -12 25 0 13 6 15 9 5 9 -8 0 -22 -4 -30 -9z"/>
<path d="M1432 1980 c0 -14 2 -19 5 -12 2 6 2 18 0 25 -3 6 -5 1 -5 -13z"/>
<path d="M640 1878 c0 -107 -1 -113 -26 -139 l-26 -27 40 5 c22 3 48 0 58 -6
16 -9 14 -11 -16 -11 -19 -1 -44 -6 -55 -11 -17 -8 -15 -8 8 -4 22 4 27 2 27
-14 0 -12 -9 -21 -24 -25 -13 -3 -31 -9 -40 -12 -12 -4 -16 0 -16 15 0 12 5
21 10 21 6 0 10 4 10 10 0 5 -6 7 -14 4 -10 -4 -30 -74 -20 -74 1 0 18 7 38
15 l36 15 0 -37 c0 -34 -4 -41 -44 -65 l-45 -27 -4 52 -3 52 -2 -57 c-1 -36
-7 -60 -16 -65 -11 -7 -29 -63 -20 -63 2 0 29 15 61 34 32 19 59 33 61 31 2
-1 0 -181 -4 -399 l-7 -396 -24 0 -23 0 0 140 0 140 -45 0 -45 0 0 134 c0 126
-1 135 -20 141 -18 6 -20 15 -20 101 l0 95 -45 -42 c-41 -38 -44 -46 -47 -98
-3 -49 -6 -56 -25 -59 -20 -3 -23 -9 -23 -46 0 -34 -4 -45 -23 -55 l-22 -11
23 6 24 6 -4 -231 c-2 -193 -6 -233 -18 -241 -17 -11 44 -12 185 -1 l90 6 -80
8 c-52 4 -81 4 -83 -3 -2 -5 -10 -10 -18 -10 -11 0 -14 27 -14 145 l0 145 100
0 100 0 0 -140 0 -140 78 1 c42 1 65 4 50 6 l-28 4 0 344 0 343 28 -4 c15 -3
33 -5 40 -6 9 -1 12 -75 12 -334 0 -256 -3 -333 -12 -337 -18 -7 91 -6 187 1
l80 7 -5 315 -5 315 -3 -312 c-2 -309 -2 -313 -23 -313 -20 0 -20 2 -17 304 2
167 0 299 -4 293 -4 -7 -8 -144 -8 -304 0 -286 0 -293 -20 -293 -19 0 -20 7
-20 213 0 116 3 282 7 367 l6 155 89 64 c69 49 92 61 98 51 5 -8 8 78 8 191
-1 168 -2 188 -8 114 -4 -49 -8 -130 -9 -180 -1 -49 -5 -95 -9 -101 -4 -6 -57
-39 -118 -73 l-111 -63 -6 -211 c-4 -116 -7 -284 -7 -374 l0 -163 -25 0 c-24
0 -25 2 -25 73 0 39 -2 198 -4 352 -2 194 -1 229 3 115 l7 -165 2 223 c1 157
-1 222 -9 222 -6 0 -9 -7 -5 -15 4 -12 -3 -15 -33 -15 -67 0 -101 11 -101 31
0 20 3 20 88 -1 l32 -8 0 47 c0 52 -17 111 -31 111 -5 0 -9 8 -9 18 0 10 -11
29 -25 42 -24 22 -25 29 -25 137 0 69 -4 113 -10 113 -6 0 -10 -44 -10 -112z
m54 -198 c34 -13 33 -32 -1 -28 -17 2 -29 10 -31 21 -4 20 -2 20 32 7z m29
-56 c9 -3 17 -9 17 -14 0 -16 -52 -50 -76 -50 -21 0 -24 5 -24 41 0 40 0 41
33 34 17 -4 40 -9 50 -11z m-105 -99 c-2 -9 -27 -29 -56 -46 -45 -25 -53 -27
-50 -13 2 10 23 30 48 45 53 32 63 34 58 14z m42 -35 c0 -5 -4 -10 -9 -10 -6
0 -13 5 -16 10 -3 6 1 10 9 10 9 0 16 -4 16 -10z m70 -10 l25 -8 -25 0 c-14 0
-34 3 -45 8 l-20 9 20 -1 c11 0 31 -4 45 -8z m-70 -20 c0 -5 -4 -10 -9 -10 -6
0 -13 5 -16 10 -3 6 1 10 9 10 9 0 16 -4 16 -10z m70 -10 l25 -8 -25 0 c-14 0
-34 3 -45 8 l-20 9 20 -1 c11 0 31 -4 45 -8z m-15 -25 l40 -13 -40 -1 c-48 -1
-85 8 -85 20 0 12 38 10 85 -6z m-295 -80 c0 -53 -4 -75 -12 -75 -10 0 -12
-18 -10 -65 2 -36 0 -65 -5 -65 -4 0 -27 8 -50 18 -38 15 -43 21 -43 49 0 29
3 33 43 41 23 6 34 10 25 11 -15 1 -18 11 -18 53 0 43 5 57 27 80 15 15 30 28
35 28 4 0 8 -34 8 -75z m39 -232 c-1 -72 -4 -115 -8 -98 -4 17 -5 45 -3 63 2
18 -2 40 -10 49 -9 12 -9 15 0 9 6 -4 12 -2 12 3 0 6 -6 11 -12 11 -10 0 -10
2 0 9 9 6 11 19 7 45 -5 24 -3 36 4 36 8 0 11 -40 10 -127z m-53 -113 c35 -14
30 -20 -16 -20 l-40 0 0 54 c0 69 23 85 28 19 3 -36 8 -46 28 -53z"/>
<path d="M1432 1870 c0 -19 2 -27 5 -17 2 9 2 25 0 35 -3 9 -5 1 -5 -18z"/>
<path d="M1362 1790 c0 -19 2 -27 5 -17 2 9 2 25 0 35 -3 9 -5 1 -5 -18z"/>
<path d="M1432 1750 c0 -19 2 -27 5 -17 2 9 2 25 0 35 -3 9 -5 1 -5 -18z"/>
<path d="M1362 1670 c0 -19 2 -27 5 -17 2 9 2 25 0 35 -3 9 -5 1 -5 -18z"/>
<path d="M1432 1640 c0 -19 2 -27 5 -17 2 9 2 25 0 35 -3 9 -5 1 -5 -18z"/>
<path d="M2220 1640 c-8 -5 -10 -10 -5 -10 6 0 17 5 25 10 8 5 11 10 5 10 -5
0 -17 -5 -25 -10z"/>
<path d="M2370 1636 c0 -2 7 -7 16 -10 8 -3 12 -2 9 4 -6 10 -25 14 -25 6z"/>
<path d="M2380 1600 c8 -5 20 -10 25 -10 6 0 3 5 -5 10 -8 5 -19 10 -25 10 -5
0 -3 -5 5 -10z"/>
<path d="M1362 1550 c0 -19 2 -27 5 -17 2 9 2 25 0 35 -3 9 -5 1 -5 -18z"/>
<path d="M2370 1576 c0 -2 7 -7 16 -10 8 -3 12 -2 9 4 -6 10 -25 14 -25 6z"/>
<path d="M1432 1530 c0 -19 2 -27 5 -17 2 9 2 25 0 35 -3 9 -5 1 -5 -18z"/>
<path d="M1362 1430 c0 -19 2 -27 5 -17 2 9 2 25 0 35 -3 9 -5 1 -5 -18z"/>
<path d="M1432 1410 c0 -19 2 -27 5 -17 2 9 2 25 0 35 -3 9 -5 1 -5 -18z"/>
<path d="M1701 1399 c-13 -5 -22 -12 -19 -15 3 -3 21 2 39 10 37 16 19 21 -20
5z"/>
<path d="M662 1350 c0 -14 2 -19 5 -12 2 6 2 18 0 25 -3 6 -5 1 -5 -13z"/>
<path d="M1362 1310 c0 -19 2 -27 5 -17 2 9 2 25 0 35 -3 9 -5 1 -5 -18z"/>
<path d="M1432 1300 c0 -19 2 -27 5 -17 2 9 2 25 0 35 -3 9 -5 1 -5 -18z"/>
<path d="M1695 1290 c-13 -5 -14 -9 -5 -9 8 0 24 4 35 9 13 5 14 9 5 9 -8 0
-24 -4 -35 -9z"/>
<path d="M662 1255 c0 -16 2 -22 5 -12 2 9 2 23 0 30 -3 6 -5 -1 -5 -18z"/>
<path d="M691 1254 c0 -11 3 -14 6 -6 3 7 2 16 -1 19 -3 4 -6 -2 -5 -13z"/>
<path d="M712 1250 c0 -14 2 -19 5 -12 2 6 2 18 0 25 -3 6 -5 1 -5 -13z"/>
<path d="M1282 1225 c0 -16 2 -22 5 -12 2 9 2 23 0 30 -3 6 -5 -1 -5 -18z"/>
<path d="M1362 1200 c0 -14 2 -19 5 -12 2 6 2 18 0 25 -3 6 -5 1 -5 -13z"/>
<path d="M1432 1180 c0 -14 2 -19 5 -12 2 6 2 18 0 25 -3 6 -5 1 -5 -13z"/>
<path d="M2418 1193 c7 -3 16 -2 19 1 4 3 -2 6 -13 5 -11 0 -14 -3 -6 -6z"/>
<path d="M1695 1180 l-20 -9 20 0 c11 0 29 4 40 9 l20 9 -20 0 c-11 0 -29 -4
-40 -9z"/>
<path d="M2398 1153 c6 -2 18 -2 25 0 6 3 1 5 -13 5 -14 0 -19 -2 -12 -5z"/>
<path d="M662 1125 c0 -16 2 -22 5 -12 2 9 2 23 0 30 -3 6 -5 -1 -5 -18z"/>
<path d="M692 1130 c0 -14 2 -19 5 -12 2 6 2 18 0 25 -3 6 -5 1 -5 -13z"/>
<path d="M712 1130 c0 -14 2 -19 5 -12 2 6 2 18 0 25 -3 6 -5 1 -5 -13z"/>
<path d="M1282 1100 c0 -14 2 -19 5 -12 2 6 2 18 0 25 -3 6 -5 1 -5 -13z"/>
<path d="M662 1025 c0 -16 2 -22 5 -12 2 9 2 23 0 30 -3 6 -5 -1 -5 -18z"/>
<path d="M712 1020 c0 -14 2 -19 5 -12 2 6 2 18 0 25 -3 6 -5 1 -5 -13z"/>
<path d="M393 919 c11 -7 23 -7 35 0 14 9 11 10 -18 10 -29 0 -32 -1 -17 -10z"/>
<path d="M662 900 c0 -19 2 -27 5 -17 2 9 2 25 0 35 -3 9 -5 1 -5 -18z"/>
<path d="M712 900 c0 -14 2 -19 5 -12 2 6 2 18 0 25 -3 6 -5 1 -5 -13z"/>
<path d="M393 893 c9 -2 25 -2 35 0 9 3 1 5 -18 5 -19 0 -27 -2 -17 -5z"/>
<path d="M380 870 c0 -5 14 -10 30 -10 17 0 30 5 30 10 0 6 -13 10 -30 10 -16
0 -30 -4 -30 -10z"/>
<path d="M393 843 c9 -2 25 -2 35 0 9 3 1 5 -18 5 -19 0 -27 -2 -17 -5z"/>
<path d="M380 820 c0 -5 14 -10 30 -10 17 0 30 5 30 10 0 6 -13 10 -30 10 -16
0 -30 -4 -30 -10z"/>
<path d="M465 820 c-3 -5 -1 -10 4 -10 6 0 11 5 11 10 0 6 -2 10 -4 10 -3 0
-8 -4 -11 -10z"/>
<path d="M662 785 c0 -16 2 -22 5 -12 2 9 2 23 0 30 -3 6 -5 -1 -5 -18z"/>
<path d="M712 790 c0 -14 2 -19 5 -12 2 6 2 18 0 25 -3 6 -5 1 -5 -13z"/>
<path d="M380 793 c0 -5 14 -8 30 -8 17 0 30 3 30 8 0 4 -13 7 -30 7 -16 0
-30 -3 -30 -7z"/>
<path d="M393 763 c9 -2 25 -2 35 0 9 3 1 5 -18 5 -19 0 -27 -2 -17 -5z"/>
<path d="M380 740 c0 -5 14 -10 30 -10 17 0 30 5 30 10 0 6 -13 10 -30 10 -16
0 -30 -4 -30 -10z"/>
<path d="M460 740 c0 -5 5 -10 10 -10 6 0 10 5 10 10 0 6 -4 10 -10 10 -5 0
-10 -4 -10 -10z"/>
<path d="M393 713 c9 -2 25 -2 35 0 9 3 1 5 -18 5 -19 0 -27 -2 -17 -5z"/>
<path d="M883 654 c-5 -15 11 -33 30 -34 15 0 20 32 6 41 -20 13 -29 11 -36
-7z"/>
<path d="M965 660 c-9 -15 4 -30 26 -30 12 0 19 7 19 20 0 21 -33 29 -45 10z"/>
<path d="M1317 663 c-15 -15 -5 -23 28 -23 24 0 35 5 35 15 0 15 -50 22 -63 8z"/>
<path d="M800 641 c0 -16 6 -21 26 -21 33 0 30 33 -4 38 -17 3 -22 -2 -22 -17z"/>
<path d="M634 635 c-4 -9 -2 -21 4 -27 15 -15 44 -1 40 19 -4 23 -36 29 -44 8z"/>
<path d="M717 644 c-11 -11 5 -34 24 -34 12 0 19 7 19 20 0 19 -28 28 -43 14z"/>
<path d="M550 621 c0 -22 21 -33 40 -21 18 11 4 40 -20 40 -13 0 -20 -7 -20
-19z"/>
<path d="M1310 610 c0 -5 16 -10 35 -10 19 0 35 5 35 10 0 6 -16 10 -35 10
-19 0 -35 -4 -35 -10z"/>
<path d="M1310 570 c0 -5 16 -10 35 -10 19 0 35 5 35 10 0 6 -16 10 -35 10
-19 0 -35 -4 -35 -10z"/>
<path d="M800 551 c0 -16 6 -21 26 -21 33 0 30 33 -4 38 -17 3 -22 -2 -22 -17z"/>
<path d="M641 551 c-19 -12 -6 -43 16 -39 10 2 18 12 18 22 0 22 -14 29 -34
17z"/>
<path d="M717 554 c-11 -11 5 -34 23 -34 18 0 34 23 23 34 -4 3 -14 6 -23 6
-9 0 -19 -3 -23 -6z"/>
<path d="M890 399 c-63 -12 -156 -21 -232 -22 -123 -2 -126 -3 -110 -21 16
-17 29 -18 152 -13 74 3 169 13 210 23 106 24 345 24 460 0 50 -11 149 -20
240 -23 131 -4 174 -2 280 17 69 12 180 24 247 27 92 4 126 9 135 21 11 13 -7
14 -157 9 -106 -4 -196 -12 -240 -23 -107 -25 -338 -23 -484 4 -150 29 -351
29 -501 1z"/>
<path d="M2332 360 c-24 -21 -92 -72 -152 -112 -60 -40 -107 -74 -106 -76 8
-8 474 169 509 193 15 11 7 13 -60 19 -43 4 -94 9 -113 11 -30 4 -41 -1 -78
-35z"/>
<path d="M280 341 l-65 -6 103 -48 c87 -41 426 -177 441 -177 2 0 -29 23 -70
51 -91 63 -142 102 -196 151 -46 41 -56 43 -213 29z"/>
<path d="M650 285 c0 -13 63 -34 133 -44 105 -15 199 -14 337 4 97 13 130 14
210 3 124 -16 321 -16 438 0 73 11 112 11 182 2 71 -9 93 -9 112 1 21 12 17
14 -52 26 -105 17 -195 16 -329 -4 -101 -14 -129 -15 -221 -4 -189 24 -241 24
-383 6 -131 -18 -145 -18 -270 -2 -141 18 -157 20 -157 12z"/>
<path d="M870 167 c0 -3 30 -15 67 -28 60 -20 76 -21 172 -13 58 4 149 6 201
4 216 -8 497 1 540 18 22 8 18 11 -34 17 -33 4 -100 4 -150 -1 -50 -4 -126 -7
-168 -6 -110 2 -344 1 -435 -1 -43 -1 -104 2 -135 7 -32 4 -58 6 -58 3z"/>
</g>
</svg>
